<svg aria-hidden="true" style="position: absolute; width: 0; height: 0; overflow: hidden;" version="1.1" xmlns="http://www.w3.org/2000/svg" xmlns:xlink="http://www.w3.org/1999/xlink">
<defs>
<symbol id="icon-dark-heart" viewBox="0 0 32 32">
<path fill="#414141" style="fill: var(--color1, #414141)" d="M4.952 2.667h22.095c1.262 0 2.286 1.023 2.286 2.286v22.095c0 1.262-1.023 2.286-2.286 2.286h-22.095c-1.262 0-2.286-1.023-2.286-2.286v-22.095c0-1.262 1.023-2.286 2.286-2.286z"></path>
<path fill="#ffcc26" style="fill: var(--color2, #ffcc26)" d="M6 2c-1.061 0-2.078 0.421-2.828 1.172s-1.172 1.768-1.172 2.828v20c0 1.061 0.421 2.078 1.172 2.828s1.768 1.172 2.828 1.172h20c1.061 0 2.078-0.421 2.828-1.172s1.172-1.768 1.172-2.828v-20c0-1.061-0.421-2.078-1.172-2.828s-1.768-1.172-2.828-1.172h-20zM16 11.54c0 0 1.41-2.17 3.24-2.49 4.54-0.79 6.41 3.18 5.65 6.13-1.35 5.27-8.89 9.87-8.89 9.87s-7.54-4.6-8.89-9.86c-0.75-2.95 1.12-6.93 5.65-6.13 1.83 0.32 3.24 2.48 3.24 2.48z"></path>
</symbol>
<symbol id="icon-white-heart" viewBox="0 0 32 32">
<path fill="#ffcc26" style="fill: var(--color2, #ffcc26)" d="M4.605 0.046c-1.209 0-2.368 0.48-3.223 1.335s-1.335 2.014-1.335 3.223v22.791c0 1.209 0.48 2.368 1.335 3.223s2.014 1.335 3.223 1.335h22.791c1.209 0 2.368-0.48 3.223-1.335s1.335-2.014 1.335-3.223v-22.791c0-1.209-0.48-2.368-1.335-3.223s-2.014-1.335-3.223-1.335h-22.791zM16 10.918c0 0 1.607-2.473 3.692-2.837 5.173-0.9 7.304 3.624 6.438 6.985-1.538 6.005-10.13 11.247-10.13 11.247s-8.592-5.242-10.13-11.236c-0.855-3.362 1.276-7.897 6.438-6.985 2.085 0.365 3.692 2.826 3.692 2.826z"></path>
</symbol>
<symbol id="icon-zoom" viewBox="0 0 32 32">
<path d="M14.222 3.556c-2.11 0-4.172 0.626-5.926 1.798s-3.121 2.838-3.929 4.787-1.019 4.094-0.607 6.163c0.412 2.069 1.427 3.97 2.919 5.462s3.392 2.508 5.462 2.919c2.069 0.412 4.214 0.2 6.163-0.607s3.615-2.175 4.787-3.929c1.172-1.754 1.798-3.816 1.798-5.926 0-2.829-1.124-5.542-3.124-7.542s-4.713-3.124-7.542-3.124zM14.222 23.031c-1.761-0-3.483-0.523-4.947-1.504s-2.603-2.373-3.273-4.002c-0.67-1.629-0.842-3.42-0.492-5.147s1.204-3.31 2.455-4.55 2.842-2.080 4.572-2.414c1.729-0.334 3.519-0.146 5.142 0.539s3.005 1.837 3.972 3.309c0.967 1.472 1.475 3.199 1.459 4.96-0.021 2.344-0.967 4.584-2.632 6.234s-3.914 2.575-6.257 2.575z"></path>
<path d="M28.187 26.391l-4.596-4.596c-0.379 0.469-0.792 0.908-1.236 1.316l4.578 4.578c0.17 0.146 0.389 0.222 0.612 0.213s0.436-0.101 0.594-0.26c0.158-0.158 0.251-0.371 0.26-0.594s-0.067-0.442-0.213-0.612v-0.044z"></path>
<path d="M18.667 13.333h-3.556v-3.556c0-0.236-0.094-0.462-0.26-0.629s-0.393-0.26-0.629-0.26-0.462 0.094-0.629 0.26c-0.167 0.167-0.26 0.393-0.26 0.629v3.556h-3.556c-0.236 0-0.462 0.094-0.629 0.26s-0.26 0.393-0.26 0.629c0 0.236 0.094 0.462 0.26 0.629s0.393 0.26 0.629 0.26h3.556v3.556c0 0.236 0.094 0.462 0.26 0.629s0.393 0.26 0.629 0.26 0.462-0.094 0.629-0.26c0.167-0.167 0.26-0.393 0.26-0.629v-3.556h3.556c0.236 0 0.462-0.094 0.629-0.26s0.26-0.393 0.26-0.629c0-0.236-0.094-0.462-0.26-0.629s-0.393-0.26-0.629-0.26z"></path>
</symbol>
</defs>
</svg>
