<svg width="86" height="86" viewBox="0 0 86 86" fill="none" xmlns="http://www.w3.org/2000/svg">
<path d="M12.375 0.125C9.1261 0.125 6.01026 1.41562 3.71294 3.71294C1.41562 6.01026 0.125 9.1261 0.125 12.375V73.625C0.125 76.8739 1.41562 79.9897 3.71294 82.2871C6.01026 84.5844 9.1261 85.875 12.375 85.875H73.625C76.8739 85.875 79.9897 84.5844 82.2871 82.2871C84.5844 79.9897 85.875 76.8739 85.875 73.625V12.375C85.875 9.1261 84.5844 6.01026 82.2871 3.71294C79.9897 1.41562 76.8739 0.125 73.625 0.125H12.375ZM43 29.3412C43 29.3412 47.3181 22.6956 52.9225 21.7156C66.8262 19.2963 72.5531 31.4544 70.2256 40.4888C66.0912 56.6281 43 70.7156 43 70.7156C43 70.7156 19.9088 56.6281 15.7744 40.5194C13.4775 31.485 19.2044 19.2963 33.0775 21.7463C38.6819 22.7263 43 29.3412 43 29.3412Z" fill="#FFCC26"/>
</svg>
